<?xml version="1.0" encoding="utf-8"?>
<!-- Generator: Adobe Illustrator 24.3.0, SVG Export Plug-In . SVG Version: 6.00 Build 0)  -->
<svg version="1.1" id="Layer_1" xmlns="http://www.w3.org/2000/svg" xmlns:xlink="http://www.w3.org/1999/xlink" x="0px" y="0px"
	 viewBox="0 0 120 29" style="enable-background:new 0 0 120 29;" xml:space="preserve">
<style type="text/css">
	.st0{fill:#FFFFFF;}
</style>
<g>
	<path class="st0" d="M38.2,19.4v-2.4h4.4c2.3,0,0.9-1.7,3.2-4H39c-4.4,0-2.8,2.8-4.8,4.9v2.6c0,1.6,1.3,2.9,3,2.9h6.7
		c1.7,0,3.2-1.4,3.2-3.1v-0.9L38.2,19.4z"/>
	<path class="st0" d="M72.6,19.4l0-3.9c0-1.4-1.2-2.6-2.6-2.6h-4.7c-3.1,0.4-2,2.9-3.8,4.8v2.5c0,1.7,1.4,3.1,3.2,3.1h0.9v-6.5h3
		l0,6.5h3.4c1.6,0,2.9-1.2,3.1-2.7c0-0.1,0-0.3,0-0.4v-0.9H72.6z"/>
	<path class="st0" d="M79,19.4v-8.1c0.8,0,1.4-0.1,1.8-0.3c1-0.5,1.5-2.7,1.5-3.3c0-0.1,0-0.1,0-0.1c-0.2,0.1-0.4,0.2-0.7,0.3
		c-0.6,0.3-1.6,0.3-2.6,0.4V2.4c-3.4,0.4-2.1,3-4,4.8v1.1c-0.3,0-0.6,0.1-0.8,0.2c-1.1,0.5-1.3,2.9-1.3,2.9c0.2-0.1,0.6-0.1,1.2-0.1
		c0.3,0,0.6,0,0.9,0v8.9c0,0.2,0,0.3,0,0.5c0.2,1.5,1.5,2.7,3.1,2.7h2c1.6,0,2.9-1.2,3.1-2.7c0-0.1,0-0.3,0-0.4v-0.9H79z"/>
	<path class="st0" d="M94.3,19.4v-8.6c-1.5,0-2,0.3-2.4,0.8c-0.9,1.1-2.8,1.3-4.3,1.6c-2.1,0.5-4.3,1.7-4.3,4.6v2.6
		c0,0.1,0,0.2,0,0.3c0.1,1.5,1.4,2.7,3,2.7h1.3c0.6,0,1.1-0.4,1.3-0.9l1.3-3.1h-3v-1c0-0.8,0.6-1.4,1.4-1.4h1.6v6.5h3.4
		c1.5,0,2.8-1.2,2.9-2.7c0-0.1,0-0.2,0-0.3v-1.1H94.3z M89.2,8c0,0-1.2,1-1.6,1.8C87.4,9.4,86.7,9,86.3,8c0,0-1.4,1.2-1.7,2
		c0,0,0,0.1,0,0.1c0,0.7,1.6,1.5,1.6,2.1c0.1,0,1-0.9,1.4-1.8c0.3,0.6,1.5,1.3,1.5,1.8c0.1,0,1.1-1,1.4-1.9c0-0.1,0-0.2,0-0.2
		C90.6,9.5,89.7,9.2,89.2,8z"/>
	<path class="st0" d="M107.9,19.4v-6.5h-4v6.4h-3.3v-6.4c-3.3,0.4-2.1,2.9-4,4.8v2.5c0,0.1,0,0.3,0,0.4c0.2,1.5,1.5,2.7,3.1,2.7h7.7
		c1.6,0,2.9-1.2,3.1-2.7c0-0.2,0-0.3,0-0.5v-0.9H107.9z"/>
	<path class="st0" d="M115.2,11.3c-4.2,0-2.7,2.8-4.6,4.7v4.6c0,0.1,0,0.1,0,0.2c0.1,1.5,1.3,2.7,2.8,2.7h1v-8.3h2.4
		c2.2,0,0.8-1.7,3.1-3.9H115.2z"/>
	<path class="st0" d="M58.7,16.9v-2.3c0-1.1-1.3-2-2.9-2h-3.2c-4.4,0-2.8,4.1-4.9,5.5v1.7h0v0.6c0,2.2,1.3,5.1,6.2,5.1
		c2.1,0,5.3-1,5.3-5.1c-0.7,1.3-2.8,2.4-4.5,2.4c-1.4,0-2.6-0.7-2.6-2.6v-0.4H58c1.7,0,3.1-1,3.1-2.2v-0.7H58.7z M55.1,17.3h-3v-1.7
		h3V17.3z"/>
	<path class="st0" d="M34.2,17.8"/>
</g>
<g>
	<path class="st0" d="M13.5,10.6C13.5,10.6,13.5,10.6,13.5,10.6C13.5,10.6,13.5,10.6,13.5,10.6z"/>
	<path class="st0" d="M21.1,14.8C21.1,14.8,21.1,14.8,21.1,14.8C21.1,14.7,21.1,14.8,21.1,14.8z"/>
	<path class="st0" d="M23.9,20.1c-0.6-0.1-1.1-0.6-1.2-1.3c0,0,0.6,0.9,0.9,0.8c0,0-0.1-3,0.5-3.9c0,0,0.2-1.1,0.6,0
		c0.4,1.1,0.2,2.1,0.1,2.2c0,0,0.6-0.1,0.7,0.2c0.1,0.3-0.5,0.3-0.8,0.3l-0.2,1.4c0,0,1.2-0.6,1.4-1.1c0.2-0.5,0.3-0.7,0.4-0.8
		c0.1-0.1,0.1-0.2-0.1-0.6c-0.2-0.4-1.1-2.2-1.1-2.8c0-0.6-0.3-1.1-1.4-0.2c-1.1,0.8-1.4,1.3-1.4,1.3s0.2,0.6,0.2,0.7
		c0,0-0.5-0.4-0.8-0.8c-0.3-0.4-0.3-0.5-0.8,0c-0.5,0.5-0.7,0.3-0.7,0.3s0.9-0.6,0.8-0.8c0,0,0-0.1,0-0.1c-0.1-0.1-0.2-0.2-0.2-0.3
		c0,0-0.4,0.2-0.8,0.3c0,0,0.8-0.3,0.8-0.6c-0.1-0.4-0.3-0.7-0.5-1.1c-0.2-0.4-0.3-0.8-0.6-1.1c-0.3-0.4-0.6-0.6-1-0.9
		c0,0,0.9,0.4,1.2,0c0.4-0.4,4.6-2.6,4.9-2.6c0.3,0,0.9,0.1,1,0.6c0,0,1.1,5,0.5,7.9c0-0.1,1.9-4.8-0.1-9.5c0,0-9.3,2.7-9.3,2.7
		c0,0-0.2-2.2-1.6-2.4l0-0.4c0,0,0.6-0.1,1-1.7c0,0-2.4-0.6-3.4,0.8L13.1,7h-0.4c0,0-0.5,0.6-0.4,1.3l0.4,0.1l-0.4,0.3
		c0,0,0,0.4,0.7,1.1c0,0,0.5,0.6,0.5,0.9c0-0.2,0.1-0.8,0-1.1l0.3,0c0,0-0.2,1,0.8,1c0,0-2,0.6-2.5,1c-0.4,0.4-1.4,1,0.2,1.6
		c0,0,2.5,0,3.3,0.4c0.8,0.4,1.7,0.5,1.9,1.2c0.3,0.8-0.4,1,0.3,1.5c0,0-2.2,2.1-2.8,2.2c-0.6,0.2-3.4,0-3.4,0s-1.4,0.4-1.9,0.9
		c0,0-0.4,0.1-1.2-0.1c-0.8-0.2-1.9-1.3-4.2,0.2c-2.3,1.5-2.9,1.8-4.1,0.2c0,0-0.9,3,2.8,2.5c0,0-0.4,0.5-1.3,0.6
		c0,0,3.1,0.6,4.5-2.2c0,0,0.2,0.5-0.1,0.9c0,0,1.1-1.1,1.7-1c0.6,0,0.8,0.1,1.2-0.2c0,0-0.4,2.1-0.8,2.3l-2.4-0.1
		c0,0-0.5,2.6-2.7,2.6l0,0.6c0,0-0.7,0.1-0.9-0.5c0,0-0.2-0.4-0.7,0.1C1.1,26.1,1,26.2,1,26.4c0,0,1.6-0.1,1.8,0.2
		c0.2,0.2,1-0.2,1.3-0.4c0.3-0.2,1.5-1.1,1.6-1.1c0,0-0.9,2.3-1.6,2.4H3.4c0,0,0.3,0.7,0.1,0.7c0,0-0.7-0.1-0.9-0.4
		c-0.2-0.4-1.2,0.6-1.2,0.9c0,0.4,0,0.3,0,0.3s0.9-0.3,1.6-0.2c0,0,0.7,0.1,1.3-0.4c0.5-0.5,2.4-2.5,2.4-2.7l3.7-0.1
		c0,0,2.6-2.4,2.7-3.1l-0.1,0.9c0,0,6.3-0.4,7.7-1.2v-0.5c0,0,0.9,1,1.6,0.8c0,0,2-0.7,2.4-0.6l0.6-0.1c0,0-1.4,1.9-2.1,1.7l0,0.9
		c0,0-0.4,0-0.5-0.6c-0.1-0.6-1.3,0.3-1.3,0.6c0,0.2,0.8,0.3,1.1,0.6c0.3,0.3,1,0,1.2-0.1c0.2,0,0.6,0,0.6,0s-0.1-0.7,0.7-1.4
		c0.8-0.7,1.7-1.8,1.4-2.1C26,21,24.5,20.2,23.9,20.1z M13.7,12.7l2.1-0.7C15.8,12.1,15.3,12.7,13.7,12.7z"/>
	<path class="st0" d="M17.8,9.6c0,0,9.5-2.8,9.5-2.8v0.4l1.5-1l-1.9,0.1l0.3,0.4L26,7c0,0-1.8-4.9-5.8-7c0,0,4.7,4.9,4.8,7.4
		L17.8,9.6z"/>
</g>
</svg>
